<?xml version="1.0" standalone="no"?>
<!DOCTYPE svg PUBLIC "-//W3C//DTD SVG 20010904//EN"
 "http://www.w3.org/TR/2001/REC-SVG-20010904/DTD/svg10.dtd">
<svg version="1.0" xmlns="http://www.w3.org/2000/svg"
 width="3402.000000pt" height="3402.000000pt" viewBox="0 0 3402.000000 3402.000000"
 preserveAspectRatio="xMidYMid meet">

<g transform="translate(0.000000,3402.000000) scale(0.100000,-0.100000)"
fill="#000000" stroke="none">
<path d="M14756 25664 c-400 -12 -758 -27 -795 -34 -167 -28 -221 -68 -280
-205 -112 -261 -147 -397 -137 -523 17 -218 18 -333 2 -478 -16 -152 -46 -441
-72 -709 -8 -82 -15 -204 -16 -270 -1 -152 22 -233 85 -302 60 -66 210 -179
289 -219 148 -74 220 -78 663 -35 411 41 594 52 840 50 181 -1 222 1 295 19
201 48 324 138 440 319 66 103 114 229 195 508 37 127 91 315 121 419 143 494
160 769 63 1003 -93 221 -295 389 -559 462 -94 26 -156 26 -1134 -5z"/>
<path d="M17764 23130 c-319 -19 -615 -78 -929 -183 -450 -152 -901 -414
-1405 -818 -215 -172 -367 -303 -750 -645 -420 -374 -641 -563 -878 -752 -108
-86 -239 -198 -289 -250 -523 -529 -675 -1277 -452 -2222 41 -173 97 -355 189
-616 671 -1890 521 -3430 -475 -4889 -200 -293 -326 -507 -579 -984 -84 -157
-158 -307 -164 -333 -37 -147 8 -342 104 -448 51 -57 102 -73 216 -68 92 4 95
5 238 75 249 122 393 225 523 373 143 164 474 622 642 890 599 952 906 1869
976 2915 13 187 7 743 -10 910 -5 55 -20 201 -32 325 -27 274 -33 848 -11
1010 19 131 49 268 79 359 87 258 461 837 901 1391 278 350 889 1057 1033
1195 603 580 1441 691 2384 318 287 -114 524 -243 735 -400 146 -110 410 -373
510 -511 379 -518 587 -1115 655 -1882 66 -755 112 -1660 166 -3305 19 -574 6
-1080 -36 -1470 -113 -1026 -411 -1889 -911 -2640 -202 -304 -388 -527 -666
-800 -372 -367 -726 -627 -1259 -928 -328 -185 -724 -465 -1216 -859 -252
-202 -433 -371 -463 -433 -41 -85 -14 -197 74 -300 l34 -40 79 1 c86 1 177 22
383 90 137 44 154 53 652 327 203 111 379 200 597 299 1025 464 1845 1104
2449 1913 705 943 1125 2113 1261 3515 31 314 41 504 48 875 19 1106 -130
2388 -438 3765 -88 395 -249 1019 -309 1200 -193 584 -491 1074 -920 1514
-684 701 -1546 1081 -2389 1053 -562 -19 -1026 -201 -1596 -627 -173 -130
-346 -275 -660 -554 -143 -128 -350 -310 -460 -406 -208 -181 -570 -538 -1104
-1088 -173 -177 -315 -321 -318 -318 -8 8 39 250 72 371 315 1152 1387 2305
2641 2840 311 133 653 223 968 255 469 48 1244 -89 1844 -326 1447 -573 2371
-1755 2990 -3829 85 -284 183 -653 263 -992 72 -307 199 -892 199 -918 0 -28
18 -15 91 65 152 168 240 304 291 451 31 91 32 98 31 254 -6 926 -362 2108
-938 3116 -378 661 -786 1193 -1306 1704 -706 693 -1474 1152 -2264 1353 -366
94 -748 133 -1091 112z"/>
<path d="M17672 19724 c-219 -48 -520 -187 -777 -359 -250 -168 -399 -311
-592 -568 -385 -516 -788 -1208 -981 -1687 -105 -261 -123 -345 -152 -710 -37
-469 -41 -572 -47 -1100 -8 -774 18 -1213 108 -1845 61 -430 126 -695 308
-1268 204 -640 265 -900 301 -1287 14 -148 14 -530 0 -685 -41 -460 -157 -961
-345 -1495 -65 -185 -88 -277 -110 -429 -18 -120 -15 -180 12 -220 14 -22 20
-23 77 -18 137 13 216 45 264 107 10 14 114 264 230 555 368 924 358 887 417
1540 62 692 79 1021 79 1525 0 507 -10 659 -90 1295 -45 360 -94 688 -204
1375 -171 1066 -220 1405 -274 1890 -53 467 -62 602 -47 696 41 257 247 677
593 1210 l78 121 218 146 c120 81 256 164 303 186 181 84 408 113 726 93 462
-29 736 -103 975 -262 536 -355 734 -1074 597 -2170 -38 -309 -100 -610 -280
-1380 -200 -850 -400 -1620 -904 -3490 -315 -1167 -516 -1923 -512 -1926 2 -2
278 103 282 108 1 2 32 50 67 108 36 58 122 193 191 301 154 240 240 389 283
489 20 45 74 241 138 495 456 1823 1596 6616 1596 6709 0 28 -7 76 -15 106 -8
30 -15 89 -15 130 0 278 -71 616 -175 834 -86 181 -247 374 -405 485 -280 196
-659 312 -1215 371 -386 40 -595 48 -703 24z"/>
<path d="M17109 18032 c-101 -44 -227 -122 -278 -172 -41 -40 -49 -54 -63
-120 -28 -121 -30 -147 -19 -168 8 -15 8 -23 0 -28 -8 -4 -9 -222 -4 -778 12
-1459 24 -1686 165 -3136 97 -990 124 -1370 142 -2004 13 -469 6 -611 -42
-846 -57 -280 -138 -548 -377 -1240 -156 -452 -306 -911 -300 -917 10 -10 361
453 510 673 408 602 618 1069 823 1831 104 388 235 855 560 1998 486 1706 725
2563 798 2865 66 272 88 450 67 555 -12 58 -16 64 -115 160 -242 236 -601 523
-1354 1085 -406 302 -391 295 -513 242z m620 -1841 c336 -116 414 -504 240
-1190 -40 -159 -149 -492 -217 -665 l-39 -100 -26 80 c-233 711 -587 1820
-583 1829 5 13 97 38 222 60 119 21 321 14 403 -14z"/>
</g>
</svg>
